<?xml version="1.0" encoding="utf-8"?>
<!-- Designed by Vexels.com - 2020 All Rights Reserved - https://vexels.com/terms-and-conditions/  -->
<svg version="1.1" id="Capa_1" xmlns="http://www.w3.org/2000/svg" xmlns:xlink="http://www.w3.org/1999/xlink" x="0px" y="0px"
	 viewBox="0 0 1200 1200" enable-background="new 0 0 1200 1200" xml:space="preserve">
<g>
	<path fill="#201328" d="M1101.59,441.578c0,0-314.78-238.111-809.944,0.709l231.296,256.701l400.372,5.462l56.997-201.589
		L1101.59,441.578z"/>
	<g>
		<path fill="#351A42" d="M991.406,501.826l-0.581-1.573c-0.808-2.151-1.641-4.371-1.641-6.334
			c0.002-15.135-2.602-29.484-5.75-45.328c-0.606-3.061-0.6-5.326,0.018-6.729c2.122-4.829,1.325-9.109,0.242-13.427
			c-2.676-10.657-5.186-21.352-7.693-32.047c-0.987-4.199-0.978-6.871,1.869-8.968c4.629-3.394,3.434-8.729,3.043-10.479
			c-0.96-4.301-2.01-8.576-3.057-12.855c-0.916-3.724-1.827-7.444-2.683-11.183l-0.666-2.91c-1.41-6.123-2.871-12.459-3.869-18.712
			c-0.392-2.482-0.4-3.975-0.028-4.445c0.564-0.714,3.601-0.929,4.732-1.006c0.725-0.05,1.367-0.236,2.108-0.448
			c0.364-0.106,0.789-0.228,1.309-0.361l1.944-0.489l-0.734-4.603c-0.284-1.833-0.562-3.637-0.91-5.428
			c-0.439-2.23-0.913-4.455-1.387-6.684c-0.883-4.133-1.794-8.409-2.43-12.621c-0.553-3.637-1.075-7.822-0.289-11.492
			c0.312-1.471,1.642-3.05,2.929-4.574c0.688-0.815,1.362-1.624,1.941-2.439l0.674-0.958l-0.422-1.093
			c-3.716-9.554-4.143-10.637-9.81-13.388c-0.073-0.654-0.137-1.309-0.196-1.96c-0.224-2.335-0.455-4.744-1.152-7.066
			c-3.341-11.215-6.97-22.537-10.485-33.483l-0.343-1.082c-0.625-1.939-1.195-3.91-1.768-5.882
			c-1.506-5.204-3.067-10.581-5.608-15.466c-3.41-6.551-7.45-12.86-11.356-18.964c-2.118-3.315-4.241-6.634-6.274-10.001
			c-1.252-2.073-2.522-4.141-3.791-6.208c-4.252-6.919-8.644-14.077-12.293-21.395c-4.028-8.08-7.562-16.619-10.975-24.879
			c-1.128-2.722-2.251-5.439-3.391-8.147c-2.372-5.623-4.701-11.26-7.029-16.902c-2.806-6.807-5.613-13.614-8.501-20.386
			c-1.336-3.13-2.873-6.147-4.657-9.641c-0.903-1.762-1.868-3.653-2.907-5.752L877.541,50l-1.932,4.068
			c-0.71,1.494-1.342,2.74-1.892,3.838c-1.056,2.095-1.891,3.751-2.477,5.512c-0.772,2.307-1.432,4.654-2.088,7.005
			c-0.996,3.555-1.938,6.915-3.266,10.163c-6.718,16.404-12.051,34.343-16.307,54.829c-0.624,2.976-1.666,5.889-2.862,9.118
			c-4.108,11.058-8.277,22.102-12.5,33.121l-0.857,2.24c-2.412,6.311-4.908,12.84-7.636,19.119c-0.935,2.152-1.535,2.63-1.807,2.723
			c-0.229,0.079-0.924,0.127-2.879-0.955c-6.724-3.707-13.989-4.816-21.017-5.887l-3.442-0.536
			c-21.668-3.533-43.804-3.1-65.218-2.681l-5.927,0.114c-15.08,0.293-30.347,1.667-44.603,3.125
			c-16.778,1.715-33.026,3.818-48.287,6.247c-6.096,0.966-12.214,2.293-18.132,3.576c-7.269,1.575-14.781,3.204-22.215,4.155
			c-6.944,0.897-14.174,0.977-21.175,1.053c-4.418,0.053-8.849,0.097-13.234,0.338c-6.885,0.378-13.622,0.497-20.183-2.143
			c-2.437-0.977-7.521-3.015-11.591,1.406c-0.88,0.949-1.574,0.546-2.709-0.515c-1.653-1.55-2.96-3.09-3.874-4.576
			c-2.151-3.489-4.247-7.015-6.342-10.541c-3.045-5.116-6.188-10.412-9.474-15.514c-2.201-3.421-4.432-6.824-6.659-10.227
			c-11.063-16.894-22.499-34.362-30.018-53.575c-0.659-1.684-1.724-3.076-2.747-4.421c-0.414-0.541-0.825-1.082-1.201-1.637
			l-2.385-3.524l-1.474,3.994c-2.655,7.188-4.01,13.998-5.316,20.583l-0.534,2.679c-0.491,2.42-0.92,4.867-1.349,7.318
			c-1.063,6.072-2.162,12.356-4.26,18.051c-7.71,20.985-16.08,38.893-25.574,54.754c-1.723,2.878-3.741,5.696-5.688,8.424
			c-1.81,2.53-3.682,5.15-5.363,7.864c-7.676,12.388-12.772,26.515-15.581,43.189c-0.375,2.243-1.142,4.682-2.272,7.239
			c-1.711,3.884-3.479,7.745-5.248,11.605c-2.109,4.601-4.213,9.201-6.228,13.837c-0.613,1.412-0.631,2.884-0.655,4.585
			c-0.01,0.788-0.02,1.674-0.096,2.68l-0.224,2.991l8.222-1.975c4.012-0.958,7.698-1.832,11.363-2.803
			c1.305-0.347,2.493-1.014,3.643-1.658c2.896-1.625,3.54-1.715,4.557-0.54c1.232,1.42,0.544,3.041-1.205,6.148
			c-0.402,0.712-0.792,1.41-1.117,2.083c-6.256,12.975-8.151,26.846-9.988,40.258l-0.216,1.58l1.445,0.686
			c7.338,3.49,7.966,4.592,6.727,11.806c-1.275,7.407-2.639,14.8-4.003,22.194c-1.127,6.114-2.254,12.228-3.333,18.349
			c-0.404,2.301-0.588,4.63-0.801,7.328c-0.106,1.362-0.221,2.839-0.382,4.491l-0.45,4.687l3.872-2.687
			c1.178-0.816,2.146-1.527,2.99-2.146c1.436-1.053,2.476-1.819,3.521-2.345c0.997-0.506,1.875-0.588,2.41-0.222
			c0.558,0.378,0.829,1.309,0.729,2.496c-0.031,0.329-0.19,0.778-0.36,1.257c-0.194,0.542-0.379,1.092-0.494,1.652
			c-0.406,2.013-0.917,4.029-1.428,6.046c-1.185,4.706-2.412,9.571-2.379,14.493c0.098,14.553-4.37,27.788-9.778,42.348
			c-0.807,2.177-1.574,4.37-2.385,6.679l-2.466,6.97l3.607-0.543c5.518-0.848,7.349-0.269,7.911,0.345
			c0.508,0.564,0.859,2.215-0.35,6.869c-0.987,3.791-2.953,7.532-4.69,10.83c-5.109,9.721-8.387,20.135-11.564,30.203
			c-0.689,2.188-1.427,4.406-2.145,6.619c0.809,1.852,1.807,3.578,2.905,5.236c0.006-0.019,0.012-0.037,0.018-0.056
			c4.717,7.157,11.683,12.801,17.744,19.044c10.748,11.07,19.637,23.523,22.686,38.911c0.595,3.002,0.61,5.807,0.204,8.413
			c31.502,41.267,20.481,94.69,3.185,139.519c-18.11,46.937-34.448,97.002-57.477,142.156c-2.04,5.546-4.917,10.993-8.684,16.302
			c-5.632,7.94-13.629,10.726-21.143,10.007c-1.387-0.13-2.765-0.33-4.1-0.695c0.23,1.239,0.452,2.496,0.683,3.718
			c0.547,2.889,1.094,5.78,1.585,8.676c0.084,0.487,0.204,0.986,0.328,1.489c0.29,1.181,0.482,1.971,0.258,2.667
			c-0.722-1.016-1.46-2.013-2.283-2.927l-0.448-0.5c-1.528-1.713-3.11-3.483-5.126-4.787c-4.993-3.237-10.04-6.386-15.092-9.532
			c-3.32-2.071-6.635-4.139-9.938-6.231c-1.369-0.869-2.659-1.854-3.899-2.797l-2.862-2.134l-1.247,0.743
			c-6.876,4.11-8.706,3.899-13.016-1.541c-2.125-2.676-3.693-5.81-5.351-9.125c-0.815-1.625-1.625-3.25-2.508-4.82
			c-8.92-15.928-14.772-34.263-18.982-59.46c-2.026-12.119-2.86-24.703-3.67-36.877c-0.358-5.436-0.721-10.867-1.184-16.286
			c-0.024-0.292,0.035-0.694,0.104-1.077c0.704-3.987,1.372-7.985,2.04-11.984c1.518-9.095,3.091-18.497,5.09-27.619
			c2.448-11.153,4.91-24.396,4.612-38.07c-0.066-3.27,0.047-6.538,0.164-9.805l1.793-51.846c0.078-2.461,0.077-4.922,0.076-7.384
			l0.004-2.571c0.061-19.965-0.306-41.192-5.449-61.968c-1.591-6.41-2.793-13.067-3.956-19.506l-0.249-1.379
			c-0.039-0.226-0.02-0.533,0.036-0.895c2.074,2.02,3.202,4.627,4.378,7.351c1.094,2.521,2.222,5.129,4.149,7.33l4.715,5.376
			l-0.907-7.093c-0.436-3.422-0.845-6.823-1.253-10.208c-0.93-7.697-1.887-15.655-3.127-23.414
			c-1.016-6.37-2.392-12.762-3.724-18.941c-0.612-2.859-1.228-5.714-1.813-8.574c-0.516-2.535-1.124-5.065-1.737-7.596
			c-1.298-5.366-2.642-10.913-2.947-16.325c-1.112-19.815-3.778-41.021-8.151-64.835c-0.474-2.571-0.787-5.179-1.104-7.786
			c-0.44-3.641-0.897-7.409-1.78-11.073c-6.729-27.97-12.384-50.605-17.806-71.235c-1.975-7.525-4.522-14.994-6.98-22.221
			c-0.867-2.538-1.729-5.077-2.574-7.626c-0.553-1.666-1.211-3.301-1.873-4.932c-0.792-1.95-1.54-3.788-2.098-5.69
			c-2.028-6.844-5.343-12.953-10.136-18.681c-9.124-10.9-20.42-18.403-29.238-23.721c-7.54-4.551-15.853-7.182-22.797-7.213
			c-10.501-0.024-21.364,1.743-31.472,5.165c-9.161,3.101-16.716,9.979-20.2,18.403c-3.36,8.112-2.811,17.103,1.59,25.995
			c1.784,3.612,3.958,7.832,6.533,11.757c2.115,3.236,4.333,6.403,6.555,9.569c2.931,4.178,5.958,8.497,8.665,12.881
			c5.842,9.46,11.474,19.297,16.919,28.811l2.612,4.567c7.625,13.296,12.224,24.079,14.908,34.955
			c1.955,7.917,4.174,15.88,6.322,23.587l1.885,6.78c1.512,5.476,3.075,11.133,4.925,16.627
			c6.546,19.413,10.725,34.504,13.551,48.919c1.226,6.257,2.855,12.517,4.433,18.568c2.024,7.778,4.119,15.821,5.332,23.804
			c0.752,4.956,1.557,9.911,2.361,14.866c3.441,21.172,6.996,43.073,6.022,64.951c-0.041,0.878,0.095,1.691,0.214,2.41
			c0.066,0.374,0.133,0.744,0.156,1.124c0.201,2.765,0.415,5.535,0.633,8.3c0.52,6.686,1.061,13.596,1.343,20.385
			c0.179,4.29,0.193,8.596,0.202,12.897c0.018,6.614,0.039,13.456,0.691,20.173c0.646,6.673,1.788,13.368,2.891,19.844
			c1.075,6.311,2.184,12.836,2.821,19.26c2.347,23.76,4.651,55.102,1.575,86.859c-2.089,21.605-3.452,44.892,0.678,68.78
			c3.177,18.37,6.461,37.367,16.192,55.639c8.189,15.372,18.926,27.211,32.105,41.086c12.071,12.712,27.197,21.195,39.022,27.167
			c8.038,4.055,15.775,9.182,23.26,14.138l2.485,1.649c3.706,2.445,7.352,5.159,10.882,7.785c3.02,2.243,6.035,4.49,9.133,6.616
			c6.903,4.733,14.869,6.079,22.571,7.384c4.38,0.744,8.768,1.805,13.121,2.98c2.193-0.71,4.636-1.103,7.332-1.103h91.891
			c4.827,0,8.827,1.271,12.039,3.355c-3.509-14.661-8.367-29.781-15.287-47.185c-0.882-2.231-1.936-4.404-2.986-6.572
			c-1.496-3.085-2.907-5.993-3.838-9.063c-2.022-6.665-3.633-13.618-5.197-20.34c-0.518-2.237-1.036-4.468-1.571-6.7
			c-3.457-14.417-6.875-28.836-10.263-43.269c-0.961-4.104-2.022-8.186-3.083-12.268c-3.47-13.365-7.058-27.187-6.835-41.358
			c0.189-11.935,0.181-23.867,0.177-35.804l0-12.06c0.002-3.539-0.013-7.074-0.033-10.612c-0.037-6.903-0.074-13.805,0.072-20.705
			c0.016-0.636,0.008-1.289,0.001-1.941c-0.021-2.518-0.044-4.769,0.967-6.752c1.232,1.417,1.427,3.328,1.592,5.968l0.033,0.511
			c0.21,3.229,0.221,6.562,0.229,9.786c0.005,1.651,0.011,3.303,0.043,4.953c0.086,4.85,0.213,9.704,0.339,14.552
			c0.268,10.341,0.544,21.033,0.432,31.523c-0.197,17.999,1.589,36.071,5.308,53.711c1.468,6.975,3.3,13.968,5.067,20.73
			c1.126,4.299,2.248,8.593,3.291,12.912c0.769,3.187,1.433,6.403,2.102,9.615c0.996,4.802,2.029,9.766,3.394,14.59
			c1.749,6.172,3.855,12.318,5.893,18.264c1.043,3.04,2.087,6.085,3.087,9.135c1.758,5.375,3.555,10.739,5.352,16.098
			c4.315,12.896,8.779,26.233,12.626,39.479l1.633,5.672c1.432,4.988,2.918,10.033,4.477,15.069c0.482,0.958,0.914,1.941,1.26,2.961
			c2.503,3.594,4.118,7.884,4.331,12.638c0.012,0.257-0.013,0.509-0.012,0.765c2.177,5.656,4.615,11.231,7.485,16.63
			c0.755,1.426,1.437,2.917,2.12,4.401c1.523,3.315,3.093,6.744,5.496,9.592c6.613,7.845,13.611,15.107,20.799,21.586
			c4.684,4.217,10.525,8.207,17.357,11.859c12.276,6.555,24.725,4.783,35.036-4.992c3.54-3.35,6.772-6.971,9.736-10.386
			c7.363-8.487,9.32-18.509,5.818-29.797c-0.953-3.078-1.556-6.284-2.162-10.151c-1.037-6.58-2.45-15.589-11.618-20.107
			c-0.397-0.199-0.898-0.824-1.364-1.429l4.332-1.526l-0.288-2.999c-0.078-1.009-0.163-1.995-0.353-2.961
			c-3.945-19.795-12.746-38.15-20.507-54.346c-1.355-2.822-2.744-5.613-4.133-8.399c-4.076-8.178-8.289-16.635-11.314-25.629
			c-9.706-28.869-15.823-52.806-19.249-75.323c-5.155-33.874-6.213-62.136-3.327-88.953c0.892-8.278,1.485-16.706,2.062-24.859
			c0.366-5.152,0.728-10.299,1.165-15.45c0.173-2.026,0.688-3.951,1.456-5.417c1.708-3.253,3.397-2.603,3.949-2.374
			c1.085,0.428,1.799,1.014,1.116,4.609l-0.647,3.293c-0.787,3.985-1.604,8.103-2.022,12.245c-0.45,4.433-0.756,8.877-1.061,13.322
			c-0.405,5.872-0.824,11.942-1.578,17.836c-1.967,15.305-0.707,31.409,3.958,50.669c1.93,7.97,4.306,16.585,7.485,27.105
			c1.141,3.772,2.261,7.55,3.38,11.328c3.66,12.355,7.445,25.126,11.936,37.441l0.43,1.183
			c6.146,16.827,12.497,34.231,15.183,52.112c3.586,23.853,11.005,46.912,18.185,69.209l0.879,2.745
			c3.057,9.5,8.897,14.274,18.935,15.484c4.229,0.507,8.542,2.196,12.712,3.83c1.032,0.404,2.059,0.808,3.085,1.194l3.756,1.443
			c7.446,2.887,15.146,5.872,23.874,5.921c7.282,0.035,14.711,0.369,21.894,0.693c6.429,0.292,12.852,0.584,19.282,0.674
			c6.403,0.095,12.629-0.472,18.462-1.682c5.403-1.124,10.768-2.663,15.959-4.155c2.938-0.843,5.872-1.684,8.826-2.458
			c7.617-1.992,12.097-6.782,13.706-14.64c1.156-5.685,2.503-11.33,3.849-16.974c1.615-6.773,3.282-13.779,4.596-20.753
			c0.168-0.896,0.374-1.801,0.585-2.721c0.996-4.38,2.127-9.346-0.196-14.703l-1.224-2.823l-5.638,5.203
			c-0.691-4.368-0.943-8.725,0.162-12.526c3.229-11.122,3.697-22.524,4.148-33.55c0.207-4.971,0.416-10.107,0.88-15.106
			c0.317-3.429,0.117-6.881-0.083-10.221c-0.091-1.587-0.185-3.173-0.223-4.753c-0.033-1.449-0.167-2.928-0.302-4.414
			c-0.291-3.182-0.567-6.19,0.209-8.724c1.582-5.194,1.937-10.652,1.121-17.175c-1.057-8.498-2.305-16.976-3.558-25.448
			l-3.063-20.928c-1.209-8.23-2.417-16.459-3.56-24.695c-0.359-2.557-0.389-4.033,0.875-5.018c0.473,0.938,0.901,1.828,1.064,2.654
			c0.898,4.417,1.845,8.831,2.787,13.247c2.408,11.237,4.902,22.861,6.458,34.366c3.212,23.709,5.371,47.366,7.304,69.564
			c1.065,12.317,1.979,25.503,1.421,38.456c-0.94,21.64-4.533,43.31-10.693,64.403c-0.868,2.994-0.715,6.827,0.408,10.004
			c0.736,2.088,0.533,3.432-0.887,5.745c-2.286,3.731-5.2,8.686-7.448,13.909c-2.887,6.715-5.725,14.064-8.667,22.453
			c-3.892,11.077-8.733,24.866-7.663,39.412c0.44,5.959,2.874,10.913,6.857,13.952c3.098,2.363,6.921,3.488,11.204,3.327
			c1.207-0.046,2.45-0.194,3.724-0.443c2.348-0.461,4.587-1.255,6.757-2.025l1.405-0.496c13.409-4.632,23.725-13.932,33.441-30.16
			c3.911-6.53,7.424-13.383,10.814-20.007c4.814-9.398,9.787-19.113,15.942-27.94c8.444-12.112,14.483-25.984,17.95-41.238
			c1.574-6.92,2.453-14.054,3.305-20.955c0.517-4.185,1.033-8.37,1.7-12.522l1.143-7.105c2.191-13.667,4.452-27.801,7.213-41.577
			c4.118-20.533,6.741-41.8,7.808-63.195c0.052-1.063,0.073-2.136,0.089-3.223c0.058-3.682,0.11-7.184,1.573-10.323l7.732,1.399
			l-2.15-12.513c-1.467-8.57-2.893-16.874-4.38-25.167c-0.35-1.962-0.809-3.908-1.268-5.849c-0.428-1.81-0.859-3.616-1.191-5.443
			c-0.624-3.428,1.01-3.761,1.793-3.922c0.762-0.134,1.587-0.323,2.491,2.858c4.764,16.658,9.685,33.886,9.004,51.806
			c-0.19,5.058-0.227,10.12-0.264,15.18c-0.043,5.836-0.086,11.87-0.381,17.769c-0.362,7.342-0.776,15.664-2.635,23.273
			c-1.829,7.49-3.847,14.929-5.862,22.369c-3.18,11.724-6.472,23.847-8.943,36.026c-1.392,6.865-3.661,13.735-5.859,20.376
			c-1.38,4.178-2.764,8.358-3.958,12.582c-1.893,6.712-3.557,13.46-5.324,20.61c-0.798,3.236-1.614,6.553-2.484,9.976l-0.587,2.318
			l8.58,1.345c4.419,0.678,8.614,1.322,12.783,2.115c2.082,0.39,4.168,0.762,6.259,1.129c6.677,1.181,13.583,2.405,20.054,4.404
			c5.762,1.781,13.42,3.554,21.423,1.439c7.194-1.882,14.383-3.959,21.48-6.036c-1.06-0.922-2.015-1.971-2.927-3.057
			c-5.406-6.434-7.957-15.492-3.812-25.042c3-6.913,7.168-12.144,12.802-17.104c2.356-2.074,10.782-5.626,12.134-8.549
			c1.628-3.517-6.326-20.99-7.016-25.79c-1.014-7.051-1.09-13.974-0.476-21.082c1.56-18.063,8.601-33.756,16.245-49.325
			c-9.351-3.766-15.847-12.872-11.296-25.201c26.949-73.004,6.421-149.938,1.441-224.89c-0.464-6.986,2.529-12.602,7.148-16.422
			c-0.107-1.991-0.198-3.979-0.425-5.99c-0.726-6.457,1.004-11.422,4.13-14.945c-0.32-21.434,4.621-42.174,14.619-61.363
			c2.734-5.248,6.414-8.424,10.447-10.023c0.152-3.32,0.938-6.216,2.158-8.728c0.454-0.941,0.967-1.828,1.544-2.654
			C999.716,525.048,995.551,513.438,991.406,501.826z"/>
		<g>
			<path fill="#E45B27" d="M707.587,437.2c3.897-0.204,7.793-0.457,11.692-0.599c5.881-0.215,7.909,2.181,5.758,7.441
				c-3.181,7.776-8.585,13.999-15.249,18.996c-3.301,2.476-6.714,1.789-9.219-1.52c-3.465-4.575-6.788-9.269-9.954-14.056
				c-3.226-4.877-1.221-8.791,4.682-9.374c2.038-0.201,4.107-0.069,6.16-0.141c2.053-0.071,4.103-0.206,6.154-0.314
				C707.603,437.489,707.595,437.344,707.587,437.2z"/>
		</g>
		<path fill="#FFFFFF" d="M785.653,415.567c16.924,13.952,41.315,16.911,61.581,5.516c19.42-10.92,29.557-31.927,27.621-52.765
			c-16.924-13.952-41.316-16.911-61.582-5.516C793.854,373.722,783.717,394.729,785.653,415.567z"/>
		<path fill="#FFFFFF" d="M623.6,422.681c-15.637,15.382-39.674,20.466-60.861,10.891c-20.302-9.177-32.241-29.214-32.138-50.142
			c15.637-15.382,39.675-20.466,60.861-10.891C611.765,381.715,623.703,401.753,623.6,422.681z"/>
		<g>
			<path fill="#FFFFFF" d="M879.051,120.032c6.266,8.457,11.774,17.458,16.671,26.776c4.972,9.286,9.241,18.953,12.898,28.874
				c1.854,4.948,3.332,10.046,4.855,15.114c1.182,5.18,2.587,10.297,3.205,15.603c1.534,10.467,1.802,21.434-1.229,31.591
				c0.847-10.521-0.915-20.75-3.093-30.785c-2.265-10.04-5.424-19.899-9.029-29.598c-3.474-9.749-7.448-19.345-11.557-28.908
				C887.594,139.167,883.436,129.586,879.051,120.032z"/>
		</g>
		<g>
			<path fill="#FFFFFF" d="M459.867,166.862c-3.532,8.837-7.04,17.615-10.676,26.309c-3.566,8.725-7.117,17.429-10.43,26.202
				c-3.446,8.728-6.46,17.588-9.169,26.518c-2.546,8.96-5.07,18.014-5.167,27.546c-2.11-9.388-1.003-19.265,0.899-28.599
				c1.905-9.409,4.77-18.572,8.177-27.473C440.422,199.601,448.992,182.513,459.867,166.862z"/>
		</g>
	</g>
	<path fill="#EA6647" d="M835.489,491.481c-35.861,21.702-68.766,50.422-96.695,85.05c-31.123,38.589-33.663,103.168-26.223,152.958
		c8.301,55.554,28.213,107.923,49.642,157.772c26.363,61.324,62.881,117.807,111.964,155.083
		c7.884,5.988,16.044,11.454,24.436,16.349c38.133,22.244,80.914,31.666,123.177,28.825l-40.127-448.71
		c0,0,119.919-197.221,119.925-197.23c-68.097,0-137.78-2.841-203.815,20.376C876.328,469.495,855.45,479.4,835.489,491.481z"/>
	<path fill="#EA6647" d="M557.747,491.481c35.861,21.702,68.766,50.422,96.695,85.05c31.123,38.589,33.663,103.168,26.223,152.958
		c-8.301,55.554-28.213,107.923-49.642,157.772c-26.363,61.324-62.881,117.807-111.964,155.083
		c-7.884,5.988-16.043,11.454-24.436,16.349c-38.133,22.244-140.3,20.041-182.564,17.201l99.513-437.086
		c0,0-119.919-197.221-119.925-197.23c68.097,0,137.78-2.841,203.815,20.376C516.907,469.495,537.785,479.4,557.747,491.481z"/>
	<g>
		<g>
			<g>
				<path fill="#351A42" d="M544.694,755.849c-3.438,0-6.321-2.59-6.685-6.009c-0.365-3.421,1.912-6.567,5.274-7.287l226.162-48.541
					l-193.247-10.064c-3.375-0.176-6.096-2.828-6.355-6.194c-0.263-3.368,2.014-6.406,5.32-7.101l214.821-45.153l-227.73-31.674
					c-3.68-0.513-6.249-3.909-5.736-7.586c0.513-3.68,3.892-6.238,7.584-5.734l265.914,36.984c3.239,0.451,5.685,3.163,5.795,6.429
					c0.114,3.264-2.137,6.139-5.337,6.811L628.413,673.2l192.408,10.022c3.37,0.176,6.088,2.819,6.355,6.181
					c0.267,3.36-1.992,6.401-5.291,7.107l-213.389,45.798l213.435-0.312c0,0,0.004,0,0.008,0c3.709,0,6.719,3.004,6.724,6.713
					c0.004,3.714-3.001,6.728-6.715,6.734l-277.246,0.405C544.703,755.849,544.698,755.849,544.694,755.849z"/>
			</g>
			<g>
				<path fill="#351A42" d="M837.445,637.248c-8.545,0-15.496-6.951-15.496-15.5c0-8.545,6.951-15.496,15.496-15.496
					s15.496,6.951,15.496,15.496C852.941,630.297,845.989,637.248,837.445,637.248z"/>
			</g>
			<g>
				<path fill="#351A42" d="M824.969,770.932c-8.545,0-15.496-6.951-15.496-15.5c0-8.545,6.951-15.496,15.496-15.496
					c8.545,0,15.498,6.951,15.498,15.496C840.468,763.981,833.514,770.932,824.969,770.932z"/>
			</g>
			<g>
				<path fill="#351A42" d="M576.542,692.999c-8.545,0-15.496-6.951-15.496-15.496s6.951-15.496,15.496-15.496
					s15.498,6.951,15.498,15.496S585.087,692.999,576.542,692.999z"/>
			</g>
			<g>
				<path fill="#351A42" d="M817.019,704.217c-8.545,0-15.496-6.951-15.496-15.5c0-8.545,6.951-15.496,15.496-15.496
					c8.545,0,15.496,6.951,15.496,15.496C832.515,697.265,825.563,704.217,817.019,704.217z"/>
			</g>
			<g>
				<path fill="#351A42" d="M563.18,602.659c-8.545,0-15.498-6.951-15.498-15.496s6.954-15.496,15.498-15.496
					c8.545,0,15.496,6.951,15.496,15.496S571.725,602.659,563.18,602.659z"/>
			</g>
			<g>
				<path fill="#351A42" d="M550.767,764.216c-8.545,0-15.498-6.951-15.498-15.496s6.954-15.496,15.498-15.496
					c8.545,0,15.496,6.951,15.496,15.496S559.312,764.216,550.767,764.216z"/>
			</g>
		</g>
	</g>
</g>
</svg>
